<?xml version="1.0" encoding="UTF-8" standalone="no"?>
<svg
   xmlns:dc="http://purl.org/dc/elements/1.1/"
   xmlns:cc="http://creativecommons.org/ns#"
   xmlns:rdf="http://www.w3.org/1999/02/22-rdf-syntax-ns#"
   xmlns:svg="http://www.w3.org/2000/svg"
   xmlns="http://www.w3.org/2000/svg"
   xmlns:xlink="http://www.w3.org/1999/xlink"
   xmlns:sodipodi="http://sodipodi.sourceforge.net/DTD/sodipodi-0.dtd"
   xmlns:inkscape="http://www.inkscape.org/namespaces/inkscape"
   width="132.004"
   height="132"
   version="1.1"
   id="svg925"
   sodipodi:docname="instalogoB&amp;W.svg"
   inkscape:version="1.0.1 (3bc2e813f5, 2020-09-07, custom)">
  <metadata
     id="metadata929">
    <rdf:RDF>
      <cc:Work
         rdf:about="">
        <dc:format>image/svg+xml</dc:format>
        <dc:type
           rdf:resource="http://purl.org/dc/dcmitype/StillImage" />
        <dc:title />
      </cc:Work>
    </rdf:RDF>
  </metadata>
  <sodipodi:namedview
     pagecolor="#ffffff"
     bordercolor="#666666"
     borderopacity="1"
     objecttolerance="10"
     gridtolerance="10"
     guidetolerance="10"
     inkscape:pageopacity="0"
     inkscape:pageshadow="2"
     inkscape:window-width="1920"
     inkscape:window-height="1004"
     id="namedview927"
     showgrid="false"
     inkscape:zoom="3.3106061"
     inkscape:cx="66.001999"
     inkscape:cy="66"
     inkscape:window-x="0"
     inkscape:window-y="0"
     inkscape:window-maximized="1"
     inkscape:current-layer="svg925"
     inkscape:document-rotation="0" />
  <defs
     id="defs917">
    <linearGradient
       id="b">
      <stop
         offset="0"
         stop-color="#3771c8"
         id="stop899" />
      <stop
         stop-color="#3771c8"
         offset=".128"
         id="stop901" />
      <stop
         offset="1"
         stop-color="#60f"
         stop-opacity="0"
         id="stop903" />
    </linearGradient>
    <linearGradient
       id="a">
      <stop
         offset="0"
         stop-color="#fd5"
         id="stop906" />
      <stop
         offset=".1"
         stop-color="#fd5"
         id="stop908" />
      <stop
         offset=".5"
         stop-color="#ff543e"
         id="stop910" />
      <stop
         offset="1"
         stop-color="#c837ab"
         id="stop912" />
    </linearGradient>
    <radialGradient
       id="c"
       cx="158.429"
       cy="578.088"
       r="65"
       xlink:href="#a"
       gradientUnits="userSpaceOnUse"
       gradientTransform="matrix(0 -1.98198 1.8439 0 -1031.402 454.004)"
       fx="158.429"
       fy="578.088" />
    <radialGradient
       id="d"
       cx="147.694"
       cy="473.455"
       r="65"
       xlink:href="#b"
       gradientUnits="userSpaceOnUse"
       gradientTransform="matrix(.17394 .86872 -3.5818 .71718 1648.348 -458.493)"
       fx="147.694"
       fy="473.455" />
  </defs>
  <path
     fill="url(#c)"
     d="M65.03 0C37.888 0 29.95.028 28.407.156c-5.57.463-9.036 1.34-12.812 3.22-2.91 1.445-5.205 3.12-7.47 5.468C4 13.126 1.5 18.394.595 24.656c-.44 3.04-.568 3.66-.594 19.188-.01 5.176 0 11.988 0 21.125 0 27.12.03 35.05.16 36.59.45 5.42 1.3 8.83 3.1 12.56 3.44 7.14 10.01 12.5 17.75 14.5 2.68.69 5.64 1.07 9.44 1.25 1.61.07 18.02.12 34.44.12 16.42 0 32.84-.02 34.41-.1 4.4-.207 6.955-.55 9.78-1.28 7.79-2.01 14.24-7.29 17.75-14.53 1.765-3.64 2.66-7.18 3.065-12.317.088-1.12.125-18.977.125-36.81 0-17.836-.04-35.66-.128-36.78-.41-5.22-1.305-8.73-3.127-12.44-1.495-3.037-3.155-5.305-5.565-7.624C116.9 4 111.64 1.5 105.372.596 102.335.157 101.73.027 86.19 0H65.03z"
     transform="translate(1.004 1)"
     id="path919" />
  <path
     id="path921"
     style="fill:#000000;fill-opacity:1"
     d="M 66.034,1 C 52.856346,1.2246157 39.631868,0.54081314 26.483869,1.4639841 13.487496,2.5706714 2.3922629,13.660843 1.4482148,26.716406 0.50800436,44.524323 1.2261572,62.394775 1.0093,80.227201 c 0.4883003,10.688842 -1.3210668,21.770789 2.0752312,32.117889 3.7862677,11.22451 15.3292668,18.48805 26.9837498,18.44682 23.928675,0.28375 47.875918,0.30518 71.804369,0.0126 11.96964,0.0985 23.78129,-7.54947 27.37375,-19.1605 3.03632,-10.03664 1.22783,-20.701189 1.76951,-31.012608 -0.10804,-17.777676 0.28255,-35.577809 -0.29626,-53.340476 C 129.90332,14.378112 119.34454,2.9413038 106.376,1.596 93.2848,0.49438864 80.102222,1.1938321 66.969699,1 66.657799,1 66.3459,1 66.034,1 Z" />
  <path
     id="path923"
     style="opacity:1;fill:#ffffff;fill-opacity:1"
     d="m 66.004,18 c -11.978416,0.498152 -24.976556,-1.681848 -35.837121,4.69088 -8.757904,5.499917 -12.414242,16.329393 -11.932248,26.273091 -0.469004,13.474909 -0.353523,26.982446 0.2753,40.44539 1.043083,10.109592 7.682942,20.163349 17.95786,22.659309 11.210405,3.17951 22.978681,1.34672 34.449142,1.91039 9.476275,-0.12304 19.463369,0.59555 28.361083,-3.23447 8.969164,-4.36552 14.420954,-14.234838 14.311314,-24.084649 0.89463,-12.828681 0.10381,-25.697651 0.29862,-38.540883 -0.19881,-9.522267 -3.22883,-20.04084 -11.8451,-25.275561 C 92.084367,16.633811 79.867328,18.333668 68.692231,18.013371 67.796144,18.011729 66.900056,18.007946 66.004,18 Z m -4.306,8.65 c 11.297187,0.527745 23.049658,-1.444231 33.935689,2.436604 6.971841,3.473037 9.958951,11.749145 9.437911,19.156139 0.5086,13.656123 0.47791,27.353388 -0.2849,40.99376 -0.88859,7.108006 -6.062756,14.017477 -13.494248,14.980567 -9.952658,2.03903 -20.163869,0.51794 -30.230751,1.08827 -8.277001,-0.0178 -16.941902,0.5281 -24.800372,-2.47689 C 29.431525,99.346133 26.437178,91.237728 26.944133,83.920747 26.389472,70.255572 26.513575,56.551572 27.19193,42.89845 28.032733,35.856175 33.026842,28.958149 40.343414,27.794993 47.332622,26.050924 54.588324,26.991692 61.698,26.65 Z m 29.928,7.97 C 85.333846,33.930659 83.857733,44.886651 90.022676,46.032301 96.168097,48.126872 100.45827,37.881542 94.335424,35.29519 93.510938,34.842805 92.569087,34.59126 91.626,34.62 Z M 66.004,41.35 C 51.285778,40.795671 38.501779,56.032821 41.681274,70.444066 43.955128,83.563036 58.101303,93.485891 71.208462,90.148083 83.479169,87.550468 92.852628,74.696498 90.393409,62.163948 88.535592,50.60175 77.940068,40.919878 66.004,41.35 Z m 0,8.65 C 77.427828,49.360538 86.14478,63.674488 80.221976,73.516226 75.585142,82.638511 61.508903,85.122625 54.551144,77.271807 47.785044,70.491713 48.713528,57.535626 57.256403,52.610284 59.838281,50.923723 62.911511,49.958523 66.004,50 Z" />
</svg>
